<svg xmlns="http://www.w3.org/2000/svg" width="1200" height="630" viewBox="0 0 1200 630"><path fill="#fefbfb" d="M0 0h1200v630H0z"/><defs><clipPath id="a"><path d="M109 39h1048a4 4 0 0 1 4 4v496a4 4 0 0 1-4 4H109a4 4 0 0 1-4-4V43a4 4 0 0 1 4-4"/></clipPath></defs><g opacity=".9"><path fill="#ecebeb" d="M109 39h1048a4 4 0 0 1 4 4v496a4 4 0 0 1-4 4H109a4 4 0 0 1-4-4V43a4 4 0 0 1 4-4"/><path fill="none" stroke="#000" stroke-width="8" d="M106.172 40.172A4 4 0 0 1 109 39h1048a4 4 0 0 1 4 4v496a4 4 0 0 1-4 4H109a4 4 0 0 1-4-4V43a4 4 0 0 1 1.172-2.828" clip-path="url(#a)"/></g><defs><clipPath id="b"><path d="M76 63h1048a4 4 0 0 1 4 4v496a4 4 0 0 1-4 4H76a4 4 0 0 1-4-4V67a4 4 0 0 1 4-4"/></clipPath></defs><path fill="#fefbfb" d="M76 63h1048a4 4 0 0 1 4 4v496a4 4 0 0 1-4 4H76a4 4 0 0 1-4-4V67a4 4 0 0 1 4-4"/><path fill="none" stroke="#000" stroke-width="8" d="M73.172 64.172A4 4 0 0 1 76 63h1048a4 4 0 0 1 4 4v496a4 4 0 0 1-4 4H76a4 4 0 0 1-4-4V67a4 4 0 0 1 1.172-2.828" clip-path="url(#b)"/><clipPath id="c"><path d="M128 103h944v94H128z"/></clipPath><mask id="d"><path fill="#fff" d="M128 103h944v94H128z"/></mask><path d="M168.9 183h-38.6v-56.2h38.6V183Zm-31.4-49v41.8h24.2V134h-24.2Zm74.6 49h-38.6v-56.2h38.6V183Zm-31.4-49v41.8h24.2V134h-24.2Zm74.6 49h-38.6v-56.2h38.6V183Zm-31.4-49v41.8h24.2V134h-24.2Zm74.6 49h-38.6v-56.2h38.6V183Zm-31.4-49v41.8h24.2V134h-24.2Zm74.6 49h-38.6v-56.2h38.6V183Zm-31.4-49v41.8h24.2V134h-24.2Z" clip-path="url(#c)" mask="url(#d)"/><path d="M130.7 520.3v-20.7h2.2v8.6h.1q1.4-2.7 4.5-2.7 2.6 0 4.1 2 1.5 2 1.5 5.5 0 3.6-1.5 5.6-1.5 2-4.1 2-3.1 0-4.5-2.7h-.1v2.4h-2.2Zm5.9-1.7q2 0 3-1.2 1.1-1.2 1.1-3.1v-2.5q0-1.9-1.1-3.1-1-1.2-3-1.2-.8 0-1.4.2-.7.2-1.2.5-.5.4-.8 1-.3.5-.3 1.2v5.3q0 .7.3 1.2.3.6.8.9.5.4 1.2.6.6.2 1.4.2Zm18.8-6.7 2.5-6.1h2.2l-7.2 17.6q-.2.7-.5 1.1-.3.5-.7.8-.5.3-1 .4-.6.2-1.4.2h-2.2V524h3.4l1.6-4-5.8-14.2h2.3l2.4 6.1 2.2 5.5h.1l2.1-5.5Z"/><clipPath id="e"><path d="M178 489h218v36H178z"/></clipPath><mask id="f"><path fill="#fff" d="M178 489h218v36H178z"/></mask><path d="m188.1 520.1-4.5-13h-.3v13h-3.6v-19.6h5l4.5 13h.3v-13h3.6v19.6h-5Zm15.1.3q-1.7 0-3-.5-1.4-.5-2.3-1.5-.9-1-1.4-2.4-.6-1.4-.6-3.1 0-1.8.6-3.2.5-1.4 1.4-2.4.9-1 2.3-1.5 1.3-.5 3-.5t3 .5q1.4.5 2.3 1.5.9 1 1.4 2.4.6 1.4.6 3.2 0 1.7-.6 3.1-.5 1.4-1.4 2.4-.9 1-2.3 1.5-1.3.5-3 .5Zm0-3.1q1.4 0 2.2-.8.8-.9.8-2.5v-2.3q0-1.6-.8-2.4-.8-.9-2.2-.9-1.4 0-2.2.9-.8.8-.8 2.4v2.3q0 1.6.8 2.5.8.8 2.2.8Zm17.4 3.1q-1.7 0-3.1-.5-1.3-.5-2.3-1.5-.9-1-1.4-2.4-.5-1.4-.5-3.1 0-1.8.5-3.2.5-1.4 1.4-2.4 1-1 2.3-1.5 1.4-.5 3.1-.5 2.3 0 3.8 1 1.4.9 2.2 2.5l-3.2 1.8q-.4-.9-1-1.4-.7-.6-1.8-.6-1.5 0-2.2.8-.8.9-.8 2.3v2.3q0 1.5.8 2.3.7.8 2.2.8 1.2 0 1.9-.5.7-.6 1.2-1.5l3.1 1.8q-.8 1.6-2.3 2.6-1.5.9-3.9.9Zm16.2 0q-1.7 0-3-.5-1.4-.5-2.3-1.5-.9-1-1.4-2.4-.6-1.4-.6-3.1 0-1.8.6-3.2.5-1.4 1.4-2.4.9-1 2.3-1.5 1.3-.5 3-.5t3 .5q1.4.5 2.3 1.5.9 1 1.4 2.4.6 1.4.6 3.2 0 1.7-.6 3.1-.5 1.4-1.4 2.4-.9 1-2.3 1.5-1.3.5-3 .5Zm0-3.1q1.4 0 2.2-.8.8-.9.8-2.5v-2.3q0-1.6-.8-2.4-.8-.9-2.2-.9-1.4 0-2.2.9-.8.8-.8 2.4v2.3q0 1.6.8 2.5.8.8 2.2.8Zm10.6 2.8v-19.6h6.8q2.9 0 4.4 1.4 1.6 1.4 1.6 3.9 0 1.6-.9 2.6-.8 1-2.3 1.5v.1q1.8.5 2.8 1.6 1 1.1 1 3.1 0 2.5-1.6 3.9-1.5 1.5-4.3 1.5h-7.5Zm4-2.9h2.2q1.5 0 2.2-.6.7-.5.7-1.8v-.8q0-1.4-.7-1.9t-2.2-.5h-2.2v5.6Zm0-8.4h1.6q1.5 0 2.2-.5.7-.4.7-1.7v-.9q0-1.3-.7-1.7-.7-.5-2.2-.5h-1.6v5.3Zm26.6 11.3h-2.4q-1.3 0-2-.7-.8-.6-1-1.9h-.1q-.4 1.5-1.6 2.2-1.1.7-2.8.7-2.1 0-3.4-1.1-1.2-1.1-1.2-3.2 0-2.3 1.6-3.3 1.7-1.1 4.9-1.1h2.3v-.8q0-1.3-.6-1.9-.6-.7-2.1-.7-1.3 0-2.1.5t-1.4 1.4l-2.3-2.1q.8-1.2 2.3-2 1.6-.8 4-.8 3 0 4.7 1.4 1.6 1.3 1.6 4.1v6.3h1.6v3Zm-8.3-2.4q1.1 0 1.8-.5.8-.6.8-1.6v-1.7h-2.2q-2.6 0-2.6 1.7v.6q0 .7.6 1.1.6.4 1.6.4Zm17.3 2.7q-2.4 0-4.2-.7-1.7-.7-2.6-2l2.3-2.1q.8.9 2 1.4 1.1.5 2.6.5 1.2 0 1.9-.4.7-.3.7-1.1 0-.6-.5-.9-.5-.2-1.3-.4l-2.3-.3q-1-.2-1.8-.5-.9-.2-1.5-.8-.6-.5-1-1.2-.3-.7-.3-1.7 0-2.3 1.7-3.6 1.7-1.3 4.9-1.3 2.1 0 3.6.6t2.4 1.6l-2.1 2.4q-.6-.7-1.6-1.2t-2.5-.5q-2.4 0-2.4 1.5 0 .6.5.9.5.2 1.3.3l2.3.4q1 .1 1.8.4.9.3 1.5.8t1 1.3q.4.7.4 1.7 0 2.3-1.8 3.6-1.7 1.3-5 1.3Zm17.4 0q-3.6 0-5.5-2t-1.9-5.5q0-1.7.5-3.2.5-1.4 1.4-2.4.9-1 2.2-1.5 1.3-.5 2.9-.5 1.7 0 2.9.5 1.3.5 2.2 1.5.9.9 1.4 2.3.5 1.4.5 3v1.3h-9.9v.2q0 1.4.9 2.3.9.8 2.5.8 1.3 0 2.2-.5 1-.4 1.6-1.3l2.3 2.5q-.9 1-2.4 1.8-1.5.7-3.8.7Zm-.3-12.1q-1.4 0-2.2.8-.8.8-.8 2.2v.3h5.8v-.3q0-1.4-.7-2.2-.8-.8-2.1-.8Zm40 11.8h-5.4q-2.2 0-3.3-1.2-1.1-1.2-1.1-3v-7h-3.9v-3.3h2.5q.9 0 1.3-.3.4-.4.4-1.4v-3.4h3.8v5.1h5.7v3.3h-5.7v8h5.7v3.2Zm10.7.3q-3.6 0-5.5-2t-1.9-5.5q0-1.7.5-3.2.5-1.4 1.4-2.4.9-1 2.2-1.5 1.3-.5 2.9-.5 1.7 0 2.9.5 1.3.5 2.2 1.5.9.9 1.4 2.3.5 1.4.5 3v1.3h-9.9v.2q0 1.4.9 2.3.9.8 2.5.8 1.3 0 2.2-.5 1-.4 1.6-1.3l2.3 2.5q-.9 1-2.4 1.8-1.5.7-3.8.7Zm-.3-12.1q-1.4 0-2.2.8-.8.8-.8 2.2v.3h5.8v-.3q0-1.4-.7-2.2-.8-.8-2.1-.8Zm24.3 11.8h-2.4q-1.3 0-2-.7-.8-.6-1-1.9h-.1q-.4 1.5-1.6 2.2-1.1.7-2.8.7-2.1 0-3.4-1.1-1.2-1.1-1.2-3.2 0-2.3 1.6-3.3 1.7-1.1 4.9-1.1h2.3v-.8q0-1.3-.6-1.9-.6-.7-2.1-.7-1.3 0-2.1.5t-1.4 1.4l-2.3-2.1q.8-1.2 2.3-2 1.6-.8 4-.8 3 0 4.7 1.4 1.6 1.3 1.6 4.1v6.3h1.6v3Zm-8.3-2.4q1.1 0 1.8-.5.8-.6.8-1.6v-1.7h-2.2q-2.6 0-2.6 1.7v.6q0 .7.6 1.1.6.4 1.6.4Zm13.3 2.4h-3.4v-14.5h3.4v2.2h.2q.3-1 .9-1.8.7-.7 1.8-.7 2.1 0 2.6 2.5h.2q.1-.5.4-1 .2-.4.6-.8.4-.3.9-.5t1.1-.2q3.1 0 3.1 4.5v10.3h-3.4v-9.9q0-1-.3-1.4-.4-.4-.9-.4-.6 0-.9.3-.4.4-.4 1.1v10.3h-3.4v-9.9q0-1-.3-1.4-.3-.4-.9-.4-.5 0-.9.3-.4.4-.4 1.1v10.3Z" clip-path="url(#e)" mask="url(#f)"/><clipPath id="g"><path d="M937 489h135v36H937z"/></clipPath><mask id="h"><path fill="#fff" d="M937 489h135v36H937z"/></mask><path d="m947.1 520.1-4.5-13h-.3v13h-3.6v-19.6h5l4.5 13h.3v-13h3.6v19.6h-5Zm15.1.3q-1.7 0-3-.5-1.4-.5-2.3-1.5-.9-1-1.4-2.4-.6-1.4-.6-3.1 0-1.8.6-3.2.5-1.4 1.4-2.4.9-1 2.3-1.5 1.3-.5 3-.5t3 .5q1.4.5 2.3 1.5.9 1 1.4 2.4.6 1.4.6 3.2 0 1.7-.6 3.1-.5 1.4-1.4 2.4-.9 1-2.3 1.5-1.3.5-3 .5Zm0-3.1q1.4 0 2.2-.8.8-.9.8-2.5v-2.3q0-1.6-.8-2.4-.8-.9-2.2-.9-1.4 0-2.2.9-.8.8-.8 2.4v2.3q0 1.6.8 2.5.8.8 2.2.8Zm17.4 3.1q-1.7 0-3.1-.5-1.3-.5-2.3-1.5-.9-1-1.4-2.4-.5-1.4-.5-3.1 0-1.8.5-3.2.5-1.4 1.4-2.4 1-1 2.3-1.5 1.4-.5 3.1-.5 2.3 0 3.8 1 1.4.9 2.2 2.5l-3.2 1.8q-.4-.9-1-1.4-.7-.6-1.8-.6-1.5 0-2.2.8-.8.9-.8 2.3v2.3q0 1.5.8 2.3.7.8 2.2.8 1.2 0 1.9-.5.7-.6 1.2-1.5l3.1 1.8q-.8 1.6-2.3 2.6-1.5.9-3.9.9Zm16.2 0q-1.7 0-3-.5-1.4-.5-2.3-1.5-.9-1-1.4-2.4-.6-1.4-.6-3.1 0-1.8.6-3.2.5-1.4 1.4-2.4.9-1 2.3-1.5 1.3-.5 3-.5t3 .5q1.4.5 2.3 1.5.9 1 1.4 2.4.6 1.4.6 3.2 0 1.7-.6 3.1-.5 1.4-1.4 2.4-.9 1-2.3 1.5-1.3.5-3 .5Zm0-3.1q1.4 0 2.2-.8.8-.9.8-2.5v-2.3q0-1.6-.8-2.4-.8-.9-2.2-.9-1.4 0-2.2.9-.8.8-.8 2.4v2.3q0 1.6.8 2.5.8.8 2.2.8Zm10.6 2.8v-19.6h6.8q2.9 0 4.4 1.4 1.6 1.4 1.6 3.9 0 1.6-.9 2.6-.8 1-2.3 1.5v.1q1.8.5 2.8 1.6 1 1.1 1 3.1 0 2.5-1.6 3.9-1.5 1.5-4.3 1.5h-7.5Zm4-2.9h2.2q1.5 0 2.2-.6.7-.5.7-1.8v-.8q0-1.4-.7-1.9t-2.2-.5h-2.2v5.6Zm0-8.4h1.6q1.5 0 2.2-.5.7-.4.7-1.7v-.9q0-1.3-.7-1.7-.7-.5-2.2-.5h-1.6v5.3Zm26.6 11.3h-2.4q-1.3 0-2-.7-.8-.6-1-1.9h-.1q-.4 1.5-1.6 2.2-1.1.7-2.8.7-2.1 0-3.4-1.1-1.2-1.1-1.2-3.2 0-2.3 1.6-3.3 1.7-1.1 4.9-1.1h2.3v-.8q0-1.3-.6-1.9-.6-.7-2.1-.7-1.3 0-2.1.5t-1.4 1.4l-2.3-2.1q.8-1.2 2.3-2 1.6-.8 4-.8 3 0 4.7 1.4 1.6 1.3 1.6 4.1v6.3h1.6v3Zm-8.3-2.4q1.1 0 1.8-.5.8-.6.8-1.6v-1.7h-2.2q-2.6 0-2.6 1.7v.6q0 .7.6 1.1.6.4 1.6.4Zm17.3 2.7q-2.4 0-4.2-.7-1.7-.7-2.6-2l2.3-2.1q.8.9 2 1.4 1.1.5 2.6.5 1.2 0 1.9-.4.7-.3.7-1.1 0-.6-.5-.9-.5-.2-1.3-.4l-2.3-.3q-1-.2-1.8-.5-.9-.2-1.5-.8-.6-.5-1-1.2-.3-.7-.3-1.7 0-2.3 1.7-3.6 1.7-1.3 4.9-1.3 2.1 0 3.6.6t2.4 1.6l-2.1 2.4q-.6-.7-1.6-1.2t-2.5-.5q-2.4 0-2.4 1.5 0 .6.5.9.5.2 1.3.3l2.3.4q1 .1 1.8.4.9.3 1.5.8t1 1.3q.4.7.4 1.7 0 2.3-1.8 3.6-1.7 1.3-5 1.3Zm17.4 0q-3.6 0-5.5-2t-1.9-5.5q0-1.7.5-3.2.5-1.4 1.4-2.4.9-1 2.2-1.5 1.3-.5 2.9-.5 1.7 0 2.9.5 1.3.5 2.2 1.5.9.9 1.4 2.3.5 1.4.5 3v1.3h-9.9v.2q0 1.4.9 2.3.9.8 2.5.8 1.3 0 2.2-.5 1-.4 1.6-1.3l2.3 2.5q-.9 1-2.4 1.8-1.5.7-3.8.7Zm-.3-12.1q-1.4 0-2.2.8-.8.8-.8 2.2v.3h5.8v-.3q0-1.4-.7-2.2-.8-.8-2.1-.8Z" clip-path="url(#g)" mask="url(#h)"/></svg>